<?xml version="1.0" encoding="UTF-8"?>
<svg xmlns="http://www.w3.org/2000/svg" viewBox="0 0 420.67 140.89">
  <defs>
    <style>
      .cls-1 {
        font-family: TimesNewRomanPS-ItalicMT, 'Times New Roman';
        font-style: italic;
      }

      .cls-1, .cls-2, .cls-3, .cls-4, .cls-5 {
        fill: #231f20;
      }

      .cls-1, .cls-4, .cls-5 {
        font-size: 10px;
      }

      .cls-2, .cls-6, .cls-7 {
        stroke-width: 0px;
      }

      .cls-8, .cls-9, .cls-10, .cls-11, .cls-12, .cls-3, .cls-13, .cls-14, .cls-15, .cls-16, .cls-17 {
        stroke-miterlimit: 10;
      }

      .cls-8, .cls-9, .cls-10, .cls-11, .cls-3, .cls-14, .cls-15, .cls-16 {
        stroke: #231f20;
      }

      .cls-8, .cls-9, .cls-11, .cls-6, .cls-17 {
        fill: #fff;
      }

      .cls-8, .cls-12, .cls-13 {
        stroke-width: 1.5px;
      }

      .cls-9, .cls-3, .cls-15, .cls-16 {
        stroke-width: .5px;
      }

      .cls-10, .cls-12 {
        fill: #94a5d4;
      }

      .cls-18 {
        letter-spacing: -.08em;
      }

      .cls-12, .cls-13, .cls-17 {
        stroke: #1c75bc;
      }

      .cls-3 {
        stroke-dasharray: 0 0 0 0 0 0 1.24 1.24 1.24 1.24 1.24 1.24;
      }

      .cls-13, .cls-14, .cls-15, .cls-16 {
        fill: none;
      }

      .cls-14, .cls-16 {
        stroke-linecap: round;
      }

      .cls-19 {
        letter-spacing: -.02em;
      }

      .cls-4, .cls-5 {
        font-family: TimesNewRomanPSMT, 'Times New Roman';
      }

      .cls-5, .cls-20 {
        letter-spacing: -.06em;
      }

      .cls-7 {
        fill: #d1d3d4;
      }

      .cls-17 {
        stroke-width: 2px;
      }
    </style>
  </defs>
  <g id="Layer_1" data-name="Layer 1">
    <g>
      <text class="cls-4" transform="translate(47.08 134.18)"><tspan x="0" y="0">(a) Conventional reinforcement</tspan></text>
      <text class="cls-4" transform="translate(277.58 134.18)"><tspan x="0" y="0">(b) Diagonal reinforcement</tspan></text>
    </g>
  </g>
  <g id="Dimensions">
    <rect class="cls-7" x="287.55" y="31.36" width="104.14" height="45.92"/>
    <rect class="cls-7" x="73.88" y="31.36" width="104.14" height="45.92"/>
    <path class="cls-7" d="M74.05,6.64c-7.22,12.74-2.73,16.75-10.35,16.75s-3.7,18.85-6.97,18.85-3.95,8.72-3.95,8.72c-7.08-1.12,2.34,16.07,6.61,16.23,3.27.12-.87,12.45,6.74,12.45s.69,9.43,7.91,22.17"/>
    <path class="cls-7" d="M177.99,6.64c7.22,12.74,2.73,16.75,10.35,16.75s3.7,18.85,6.97,18.85,3.95,8.72,3.95,8.72c7.08-1.12-2.34,16.07-6.61,16.23-3.27.12.87,12.45-6.74,12.45-7.61,0-.69,9.43-7.91,22.17"/>
    <g>
      <line class="cls-14" x1="79.45" y1="33.76" x2="79.45" y2="74.88"/>
      <line class="cls-14" x1="161.84" y1="33.76" x2="161.84" y2="74.88"/>
      <line class="cls-14" x1="172.14" y1="33.76" x2="172.14" y2="74.88"/>
      <line class="cls-14" x1="141.25" y1="33.76" x2="141.25" y2="74.88"/>
      <line class="cls-14" x1="151.55" y1="33.76" x2="151.55" y2="74.88"/>
      <line class="cls-14" x1="89.75" y1="33.76" x2="89.75" y2="74.88"/>
      <line class="cls-14" x1="130.95" y1="33.76" x2="130.95" y2="74.88"/>
      <line class="cls-14" x1="110.35" y1="33.76" x2="110.35" y2="74.88"/>
      <line class="cls-14" x1="100.05" y1="33.76" x2="100.05" y2="74.88"/>
      <line class="cls-14" x1="120.65" y1="33.76" x2="120.65" y2="74.88"/>
    </g>
    <g>
      <line class="cls-12" x1="63.31" y1="47.84" x2="188.64" y2="47.84"/>
      <line class="cls-12" x1="63.31" y1="60.48" x2="188.64" y2="60.48"/>
      <line class="cls-12" x1="63.31" y1="73.12" x2="188.64" y2="73.12"/>
      <line class="cls-12" x1="63.31" y1="35.21" x2="188.64" y2="35.21"/>
    </g>
    <rect class="cls-9" x="19.22" y="31.25" width="21.92" height="45.92"/>
    <rect class="cls-11" x="21.94" y="33.76" width="16.71" height="41.12" rx="1.02" ry="1.02"/>
    <g>
      <ellipse class="cls-17" cx="36.71" cy="35.55" rx=".41" ry=".49"/>
      <ellipse class="cls-17" cx="23.86" cy="35.55" rx=".41" ry=".49"/>
      <ellipse class="cls-17" cx="36.71" cy="72.94" rx=".41" ry=".49"/>
      <ellipse class="cls-17" cx="23.86" cy="72.94" rx=".41" ry=".49"/>
      <ellipse class="cls-17" cx="36.71" cy="60.48" rx=".41" ry=".49"/>
      <ellipse class="cls-17" cx="23.86" cy="60.48" rx=".41" ry=".49"/>
      <ellipse class="cls-17" cx="36.71" cy="48.01" rx=".41" ry=".49"/>
      <ellipse class="cls-17" cx="23.86" cy="48.01" rx=".41" ry=".49"/>
    </g>
    <polyline class="cls-15" points="177.75 6.64 177.75 31.39 73.85 31.39 73.85 6.64"/>
    <polyline class="cls-15" points="73.85 101.81 73.85 77.31 177.75 77.31 177.75 101.81"/>
    <path class="cls-7" d="M287.65,6.67c-7.22,12.74-2.73,16.75-10.35,16.75s-3.7,18.85-6.97,18.85-3.95,8.72-3.95,8.72c-7.08-1.12,2.34,16.07,6.61,16.23,3.27.12-.87,12.45,6.74,12.45s.69,9.43,7.91,22.17"/>
    <path class="cls-7" d="M391.59,6.67c7.22,12.74,2.73,16.75,10.35,16.75s3.7,18.85,6.97,18.85,3.95,8.72,3.95,8.72c7.08-1.12-2.34,16.07-6.61,16.23-3.27.12.87,12.45-6.74,12.45-7.61,0-.69,9.43-7.91,22.17"/>
    <g>
      <line class="cls-14" x1="293.27" y1="33.76" x2="293.27" y2="74.88"/>
      <line class="cls-14" x1="375.67" y1="33.76" x2="375.67" y2="74.88"/>
      <line class="cls-14" x1="385.96" y1="33.76" x2="385.96" y2="74.88"/>
      <line class="cls-14" x1="355.07" y1="33.76" x2="355.07" y2="74.88"/>
      <line class="cls-14" x1="365.37" y1="33.76" x2="365.37" y2="74.88"/>
      <line class="cls-14" x1="303.57" y1="33.76" x2="303.57" y2="74.88"/>
      <line class="cls-14" x1="344.77" y1="33.76" x2="344.77" y2="74.88"/>
      <line class="cls-14" x1="324.17" y1="33.76" x2="324.17" y2="74.88"/>
      <line class="cls-14" x1="313.87" y1="33.76" x2="313.87" y2="74.88"/>
      <line class="cls-14" x1="334.47" y1="33.76" x2="334.47" y2="74.88"/>
    </g>
    <g>
      <line class="cls-10" x1="287.65" y1="73.15" x2="391.59" y2="73.15"/>
      <line class="cls-10" x1="287.65" y1="35.24" x2="391.59" y2="35.24"/>
    </g>
    <rect class="cls-9" x="232.82" y="31.25" width="21.92" height="45.92"/>
    <rect class="cls-11" x="235.71" y="33.99" width="16.33" height="40.39" rx="1.02" ry="1.02"/>
    <g>
      <ellipse class="cls-8" cx="250.31" cy="72.73" rx=".41" ry=".48"/>
      <g>
        <ellipse class="cls-8" cx="250.31" cy="35.55" rx=".41" ry=".48"/>
        <ellipse class="cls-8" cx="237.46" cy="35.55" rx=".41" ry=".48"/>
        <ellipse class="cls-8" cx="237.46" cy="72.73" rx=".41" ry=".48"/>
      </g>
    </g>
    <polyline class="cls-15" points="391.34 6.67 391.34 31.43 287.45 31.43 287.45 6.67"/>
    <polyline class="cls-15" points="287.45 101.84 287.45 77.35 391.34 77.35 391.34 101.84"/>
    <text class="cls-4" transform="translate(79.68 109.27)"><tspan x="0" y="0">Longitudinals</tspan></text>
    <text class="cls-4" transform="translate(142.58 91.72)"><tspan x="0" y="0">Stirrups</tspan></text>
    <g>
      <g>
        <line class="cls-3" x1="41.13" y1="17.75" x2="41.13" y2="42.84"/>
        <line class="cls-3" x1="19.22" y1="17.75" x2="19.22" y2="42.84"/>
      </g>
      <text class="cls-1" transform="translate(26.43 19.13)"><tspan x="0" y="0" xml:space="preserve"> b</tspan></text>
      <g>
        <line class="cls-15" x1="19.82" y1="24.13" x2="40.53" y2="24.13"/>
        <path class="cls-2" d="M23.24,26.53c.07-.12.04-.27-.08-.35l-3.23-2.05,3.23-2.05c.12-.07.15-.23.08-.35-.07-.12-.23-.15-.35-.08l-3.56,2.27c-.07.05-.12.13-.12.21s.04.17.12.21l3.56,2.27s.09.04.13.04c.08,0,.16-.04.21-.12Z"/>
        <path class="cls-2" d="M37.12,26.53c-.07-.12-.04-.27.08-.35l3.23-2.05-3.23-2.05c-.12-.07-.15-.23-.08-.35.07-.12.23-.15.35-.08l3.56,2.27c.07.05.12.13.12.21s-.04.17-.12.21l-3.56,2.27s-.09.04-.13.04c-.08,0-.16-.04-.21-.12Z"/>
      </g>
    </g>
    <g>
      <g>
        <line class="cls-3" x1="8.17" y1="31.25" x2="30.27" y2="31.25"/>
        <line class="cls-3" x1="8.17" y1="77.17" x2="30.27" y2="77.17"/>
      </g>
      <text class="cls-1" transform="translate(.81 56.83)"><tspan x="0" y="0" xml:space="preserve"> h</tspan></text>
      <g>
        <line class="cls-15" x1="12.19" y1="76.57" x2="12.19" y2="31.85"/>
        <path class="cls-2" d="M14.59,73.15c-.12-.07-.27-.04-.35.08l-2.05,3.23-2.05-3.23c-.07-.12-.23-.15-.35-.08-.12.07-.15.23-.08.35l2.27,3.56c.05.07.13.12.21.12s.17-.04.21-.12l2.27-3.56s.04-.09.04-.13c0-.08-.04-.16-.12-.21Z"/>
        <path class="cls-2" d="M14.59,35.27c-.12.07-.27.04-.35-.08l-2.05-3.23-2.05,3.23c-.07.12-.23.15-.35.08-.12-.07-.15-.23-.08-.35l2.27-3.56c.05-.07.13-.12.21-.12s.17.04.21.12l2.27,3.56s.04.09.04.13c0,.08-.04.16-.12.21Z"/>
      </g>
    </g>
    <g>
      <line class="cls-3" x1="221.77" y1="31.25" x2="243.87" y2="31.25"/>
      <line class="cls-3" x1="221.77" y1="77.17" x2="243.87" y2="77.17"/>
    </g>
    <text class="cls-1" transform="translate(214.41 56.83)"><tspan x="0" y="0" xml:space="preserve"> h</tspan></text>
    <g>
      <line class="cls-15" x1="225.79" y1="76.57" x2="225.79" y2="31.85"/>
      <path class="cls-2" d="M228.19,73.15c-.12-.07-.27-.04-.35.08l-2.05,3.23-2.05-3.23c-.07-.12-.23-.15-.35-.08-.12.07-.15.23-.08.35l2.27,3.56c.05.07.13.12.21.12s.17-.04.21-.12l2.27-3.56s.04-.09.04-.13c0-.08-.04-.16-.12-.21Z"/>
      <path class="cls-2" d="M228.19,35.27c-.12.07-.27.04-.35-.08l-2.05-3.23-2.05,3.23c-.07.12-.23.15-.35.08-.12-.07-.15-.23-.08-.35l2.27-3.56c.05-.07.13-.12.21-.12s.17.04.21.12l2.27,3.56s.04.09.04.13c0,.08-.04.16-.12.21Z"/>
    </g>
    <text class="cls-1" transform="translate(123.19 27.71)"><tspan x="0" y="0"> </tspan><tspan class="cls-19" x="2.5" y="0">L</tspan></text>
    <g>
      <line class="cls-15" x1="124.38" y1="24.28" x2="74.45" y2="24.28"/>
      <path class="cls-2" d="M77.87,21.88c.07.12.04.27-.08.35l-3.23,2.05,3.23,2.05c.12.07.15.23.08.35-.07.12-.23.15-.35.08l-3.56-2.27c-.07-.05-.12-.13-.12-.21s.04-.17.12-.21l3.56-2.27s.09-.04.13-.04c.08,0,.16.04.21.12Z"/>
    </g>
    <g>
      <line class="cls-15" x1="177.15" y1="24.28" x2="131.56" y2="24.28"/>
      <path class="cls-2" d="M173.73,21.88c-.07.12-.04.27.08.35l3.23,2.05-3.23,2.05c-.12.07-.15.23-.08.35.07.12.23.15.35.08l3.56-2.27c.07-.05.12-.13.12-.21s-.04-.17-.12-.21l-3.56-2.27s-.09-.04-.13-.04c-.08,0-.16.04-.21.12Z"/>
    </g>
    <text class="cls-1" transform="translate(336.91 27.75)"><tspan x="0" y="0"> </tspan><tspan class="cls-19" x="2.5" y="0">L</tspan></text>
    <g>
      <line class="cls-15" x1="338.1" y1="24.31" x2="288.17" y2="24.31"/>
      <path class="cls-2" d="M291.59,21.91c.07.12.04.27-.08.35l-3.23,2.05,3.23,2.05c.12.07.15.23.08.35-.07.12-.23.15-.35.08l-3.56-2.27c-.07-.05-.12-.13-.12-.21s.04-.17.12-.21l3.56-2.27s.09-.04.13-.04c.08,0,.16.04.21.12Z"/>
    </g>
    <g>
      <line class="cls-15" x1="390.87" y1="24.31" x2="345.49" y2="24.31"/>
      <path class="cls-2" d="M387.45,21.91c-.07.12-.04.27.08.35l3.23,2.05-3.23,2.05c-.12.07-.15.23-.08.35.07.12.23.15.35.08l3.56-2.27c.07-.05.12-.13.12-.21s-.04-.17-.12-.21l-3.56-2.27s-.09-.04-.13-.04c-.08,0-.16.04-.21.12Z"/>
    </g>
    <g>
      <g>
        <line class="cls-3" x1="254.73" y1="17.75" x2="254.73" y2="42.84"/>
        <line class="cls-3" x1="232.82" y1="17.75" x2="232.82" y2="42.84"/>
      </g>
      <text class="cls-1" transform="translate(240.03 19.13)"><tspan x="0" y="0" xml:space="preserve"> b</tspan></text>
      <g>
        <line class="cls-15" x1="233.42" y1="24.13" x2="254.13" y2="24.13"/>
        <path class="cls-2" d="M236.84,26.53c.07-.12.04-.27-.08-.35l-3.23-2.05,3.23-2.05c.12-.07.15-.23.08-.35-.07-.12-.23-.15-.35-.08l-3.56,2.27c-.07.05-.12.13-.12.21s.04.17.12.21l3.56,2.27s.09.04.13.04c.08,0,.16-.04.21-.12Z"/>
        <path class="cls-2" d="M250.72,26.53c-.07-.12-.04-.27.08-.35l3.23-2.05-3.23-2.05c-.12-.07-.15-.23-.08-.35.07-.12.23-.15.35-.08l3.56,2.27c.07.05.12.13.12.21s-.04.17-.12.21l-3.56,2.27s-.09.04-.13.04c-.08,0-.16-.04-.21-.12Z"/>
      </g>
    </g>
    <g>
      <g>
        <polyline class="cls-6" points="97.27 11.39 105.13 11.39 105.13 19.11"/>
        <g>
          <polyline class="cls-15" points="97.87 11.39 105.13 11.39 105.13 19.11"/>
          <path class="cls-2" d="M101.29,13.79c.07-.12.04-.27-.08-.35l-3.23-2.05,3.23-2.05c.12-.07.15-.23.08-.35-.07-.12-.23-.15-.35-.08l-3.56,2.27c-.07.05-.12.13-.12.21s.04.17.12.21l3.56,2.27s.09.04.13.04c.08,0,.16-.04.21-.12Z"/>
        </g>
      </g>
      <text class="cls-5" transform="translate(84.66 13.84)"><tspan x="0" y="0" xml:space="preserve"> A</tspan></text>
      <text class="cls-5" transform="translate(84.74 92.81)"><tspan x="0" y="0" xml:space="preserve"> A</tspan></text>
      <g>
        <polyline class="cls-6" points="97.27 89.72 105.13 89.72 105.13 82"/>
        <g>
          <polyline class="cls-15" points="97.87 89.72 105.13 89.72 105.13 82"/>
          <path class="cls-2" d="M101.29,92.12c.07-.12.04-.27-.08-.35l-3.23-2.05,3.23-2.05c.12-.07.15-.23.08-.35s-.23-.15-.35-.08l-3.56,2.27c-.07.05-.12.13-.12.21s.04.17.12.21l3.56,2.27s.09.04.13.04c.08,0,.16-.04.21-.12Z"/>
        </g>
      </g>
    </g>
    <g>
      <g>
        <polyline class="cls-6" points="310.06 11.58 317.92 11.58 317.92 19.31"/>
        <g>
          <polyline class="cls-15" points="310.66 11.58 317.92 11.58 317.92 19.31"/>
          <path class="cls-2" d="M314.07,13.98c.07-.12.04-.27-.08-.35l-3.23-2.05,3.23-2.05c.12-.07.15-.23.08-.35-.07-.12-.23-.15-.35-.08l-3.56,2.27c-.07.05-.12.13-.12.21s.04.17.12.21l3.56,2.27s.09.04.13.04c.08,0,.16-.04.21-.12Z"/>
        </g>
      </g>
      <text class="cls-5" transform="translate(297.44 14.03)"><tspan x="0" y="0" xml:space="preserve"> A</tspan></text>
      <text class="cls-5" transform="translate(297.52 93)"><tspan x="0" y="0" xml:space="preserve"> A</tspan></text>
      <g>
        <polyline class="cls-6" points="310.06 89.92 317.92 89.92 317.92 82.19"/>
        <g>
          <polyline class="cls-15" points="310.66 89.92 317.92 89.92 317.92 82.19"/>
          <path class="cls-2" d="M314.07,92.32c.07-.12.04-.27-.08-.35l-3.23-2.05,3.23-2.05c.12-.07.15-.23.08-.35s-.23-.15-.35-.08l-3.56,2.27c-.07.05-.12.13-.12.21s.04.17.12.21l3.56,2.27s.09.04.13.04c.08,0,.16-.04.21-.12Z"/>
        </g>
      </g>
    </g>
    <text class="cls-4" transform="translate(15.18 96.38)"><tspan x="0" y="0">Section</tspan><tspan x="6.39" y="12">A-</tspan><tspan class="cls-20" x="16.94" y="12">A</tspan></text>
    <text class="cls-4" transform="translate(228.78 96.38)"><tspan x="0" y="0">Section</tspan><tspan x="6.39" y="12">A-</tspan><tspan class="cls-20" x="16.94" y="12">A</tspan></text>
    <text class="cls-4" transform="translate(183.92 21.62)"><tspan class="cls-18" x="0" y="0">W</tspan><tspan x="8.64" y="0">all pier</tspan></text>
    <polyline class="cls-15" points="72.07 73.21 72.07 88.24 84.44 101.81"/>
    <text class="cls-4" transform="translate(293.35 109.86)"><tspan x="0" y="0">Diagonals</tspan></text>
    <polyline class="cls-15" points="285.74 73.21 285.74 88.24 298.11 101.81"/>
    <g>
      <g>
        <line class="cls-13" x1="278.36" y1="37.17" x2="400.54" y2="75.22"/>
        <line class="cls-13" x1="279.63" y1="33.08" x2="401.81" y2="71.12"/>
        <line class="cls-13" x1="279.74" y1="75.3" x2="401.69" y2="37.38"/>
        <line class="cls-13" x1="278.47" y1="71.24" x2="400.43" y2="33.32"/>
      </g>
      <g>
        <line class="cls-13" x1="286.76" y1="35.77" x2="285.31" y2="39.81"/>
        <line class="cls-13" x1="302.03" y1="40.44" x2="300.57" y2="44.48"/>
        <line class="cls-13" x1="317.29" y1="45.11" x2="315.83" y2="49.16"/>
        <line class="cls-13" x1="332.55" y1="49.79" x2="331.09" y2="53.83"/>
        <line class="cls-13" x1="347.81" y1="54.46" x2="346.35" y2="58.5"/>
        <line class="cls-13" x1="363.07" y1="59.13" x2="361.61" y2="63.17"/>
        <line class="cls-13" x1="378.33" y1="63.81" x2="376.87" y2="67.85"/>
        <line class="cls-13" x1="393.59" y1="68.48" x2="392.14" y2="72.52"/>
      </g>
      <g>
        <line class="cls-13" x1="286.02" y1="69.12" x2="287.08" y2="73.28"/>
        <line class="cls-13" x1="301.27" y1="64.42" x2="302.34" y2="68.58"/>
        <line class="cls-13" x1="316.52" y1="59.71" x2="317.59" y2="63.87"/>
        <line class="cls-13" x1="331.78" y1="55.01" x2="332.84" y2="59.17"/>
        <line class="cls-13" x1="347.03" y1="50.3" x2="348.09" y2="54.46"/>
        <line class="cls-13" x1="362.28" y1="45.6" x2="363.34" y2="49.76"/>
        <line class="cls-13" x1="377.53" y1="40.89" x2="378.59" y2="45.05"/>
        <line class="cls-13" x1="392.78" y1="36.19" x2="393.84" y2="40.35"/>
      </g>
    </g>
    <g>
      <rect class="cls-9" x="239.23" y="43.6" width="8.96" height="8.5" rx="1.02" ry="1.02"/>
      <g>
        <ellipse class="cls-17" cx="240.86" cy="50.33" rx=".36" ry=".52"/>
        <ellipse class="cls-17" cx="240.86" cy="45.38" rx=".36" ry=".52"/>
        <ellipse class="cls-17" cx="246.62" cy="50.29" rx=".36" ry=".52"/>
        <ellipse class="cls-17" cx="246.62" cy="45.33" rx=".36" ry=".52"/>
      </g>
      <rect class="cls-9" x="239.33" y="55.81" width="8.96" height="8.5" rx="1.02" ry="1.02"/>
      <g>
        <ellipse class="cls-17" cx="240.96" cy="62.55" rx=".36" ry=".52"/>
        <ellipse class="cls-17" cx="240.96" cy="57.6" rx=".36" ry=".52"/>
        <ellipse class="cls-17" cx="246.71" cy="62.5" rx=".36" ry=".52"/>
        <ellipse class="cls-17" cx="246.71" cy="57.55" rx=".36" ry=".52"/>
      </g>
    </g>
    <text class="cls-4" transform="translate(334.47 91.72)"><tspan x="0" y="0">Diagonal ties</tspan></text>
    <line class="cls-16" x1="377.26" y1="65.83" x2="377.26" y2="82.19"/>
    <polyline class="cls-15" points="161.84 67.03 166.48 67.03 166.48 82.74"/>
  </g>
</svg>